<svg width="144" height="27" viewBox="0 0 144 27" fill="none" xmlns="http://www.w3.org/2000/svg">
<path d="M7.61023 26.74H0.890235V0.579999H7.61023V2.74H3.47023V24.58H7.61023V26.74ZM17.6033 0.699999C13.5833 0.699999 10.8233 3.4 10.8233 7.81V15.19C10.8233 19.6 13.5833 22.3 17.6033 22.3C21.4433 22.3 24.1133 19.84 24.3533 15.79H22.0433C21.8033 18.58 19.9433 20.02 17.6033 20.02C15.1133 20.02 13.1333 18.37 13.1333 15.19V7.81C13.1333 4.63 15.1133 2.98 17.6033 2.98C19.9433 2.98 21.8033 4.42 22.0433 7.21H24.3533C24.1133 3.16 21.4433 0.699999 17.6033 0.699999ZM40.2052 15.19C40.2052 18.37 38.2252 20.02 35.7352 20.02C33.2452 20.02 31.2652 18.37 31.2652 15.19V7.81C31.2652 4.63 33.2452 2.98 35.7352 2.98C38.2252 2.98 40.2052 4.63 40.2052 7.81V15.19ZM42.5152 7.81C42.5152 3.4 39.7552 0.699999 35.7352 0.699999C31.7152 0.699999 28.9552 3.4 28.9552 7.81V15.19C28.9552 19.6 31.7152 22.3 35.7352 22.3C39.7552 22.3 42.5152 19.6 42.5152 15.19V7.81ZM60.7672 0.999999H58.4572V17.53L49.5172 0.999999H47.2072V22H49.5172V5.47L58.4572 22H60.7672V0.999999ZM71.0691 3.28V22H73.3791V3.28H78.9891V0.999999H65.4591V3.28H71.0691ZM87.1311 12.52H94.6611V10.24H87.1311V3.28H96.7611V0.999999H84.8211V22H96.7611V19.72H87.1311V12.52ZM115.523 0.999999H113.213V17.53L104.273 0.999999H101.963V22H104.273V5.47L113.213 22H115.523V0.999999ZM125.825 3.28V22H128.135V3.28H133.745V0.999999H120.215V3.28H125.825ZM136.877 24.58H141.017V2.74H136.877V0.579999H143.597V26.74H136.877V24.58Z" fill="#0000FF"/>
</svg>
