<svg width="144" height="27" viewBox="0 0 144 27" fill="none" xmlns="http://www.w3.org/2000/svg">
<path d="M7.61023 26.74H0.890235V0.579999H7.61023V2.74H3.47023V24.58H7.61023V26.74ZM14.6633 12.52H22.1933V10.24H14.6633V3.28H24.2933V0.999999H12.3533V22H14.6633V12.52ZM32.3752 12.52H39.9052V10.24H32.3752V3.28H42.0052V0.999999H30.0652V22H42.0052V19.72H32.3752V12.52ZM59.7172 22H62.0572L55.3072 0.999999H52.6672L45.9172 22H48.2572L50.1772 16.09H57.7972L59.7172 22ZM57.1072 13.96H50.8672L53.9872 4.21L57.1072 13.96ZM71.0691 3.28V22H73.3791V3.28H78.9891V0.999999H65.4591V3.28H71.0691ZM83.7111 15.19C83.7111 19.6 86.4711 22.3 90.4911 22.3C94.5111 22.3 97.2711 19.6 97.2711 15.19V0.999999H94.9611V15.19C94.9611 18.37 92.9811 20.02 90.4911 20.02C88.0011 20.02 86.0211 18.37 86.0211 15.19V0.999999H83.7111V15.19ZM108.203 12.49L113.783 22H116.453L110.843 12.43C114.443 11.95 115.763 9.31 115.763 6.76C115.763 3.97 114.173 0.999999 109.703 0.999999H102.563V22H104.873V12.49H108.203ZM113.423 6.76C113.423 8.77 112.073 10.27 109.703 10.27H104.873V3.28H109.703C112.073 3.28 113.423 4.75 113.423 6.76ZM123.635 12.52H131.165V10.24H123.635V3.28H133.265V0.999999H121.325V22H133.265V19.72H123.635V12.52ZM136.877 24.58H141.017V2.74H136.877V0.579999H143.597V26.74H136.877V24.58Z" fill="#0000FF"/>
</svg>
