<svg width="125" height="27" viewBox="0 0 125 27" fill="none" xmlns="http://www.w3.org/2000/svg">
<path d="M6.86219 26.74H0.142188V0.579999H6.86219V2.74H2.72219V24.58H6.86219V26.74ZM21.2052 10.24H12.2652V0.999999H9.95523V22H12.2652V12.52H21.2052V22H23.5152V0.999999H21.2052V10.24ZM31.6272 12.52H39.1572V10.24H31.6272V3.28H41.2572V0.999999H29.3172V22H41.2572V19.72H31.6272V12.52ZM58.9691 22H61.3091L54.5591 0.999999H51.9191L45.1691 22H47.5091L49.4291 16.09H57.0491L58.9691 22ZM56.3591 13.96H50.1191L53.2391 4.21L56.3591 13.96ZM64.8311 0.999999V22H71.6111C75.6311 22 78.3911 19.3 78.3911 14.89V8.11C78.3911 3.7 75.6311 0.999999 71.6111 0.999999H64.8311ZM71.6111 3.28C74.1011 3.31 76.0811 4.93 76.0811 8.11V14.89C76.0811 18.07 74.1011 19.72 71.6111 19.72H67.1411V3.28H71.6111ZM86.383 12.52H93.913V10.24H86.383V3.28H96.013V0.999999H84.073V22H96.013V19.72H86.383V12.52ZM107.455 12.49L113.035 22H115.705L110.095 12.43C113.695 11.95 115.015 9.31 115.015 6.76C115.015 3.97 113.425 0.999999 108.955 0.999999H101.815V22H104.125V12.49H107.455ZM112.675 6.76C112.675 8.77 111.325 10.27 108.955 10.27H104.125V3.28H108.955C111.325 3.28 112.675 4.75 112.675 6.76ZM117.877 24.58H122.017V2.74H117.877V0.579999H124.597V26.74H117.877V24.58Z" fill="#0000FF"/>
</svg>
