<svg width="144" height="27" viewBox="0 0 144 27" fill="none" xmlns="http://www.w3.org/2000/svg">
<path d="M7.61023 26.74H0.890235V0.579999H7.61023V2.74H3.47023V24.58H7.61023V26.74ZM17.5133 22.3C21.7133 22.3 23.8733 20.05 23.8733 16.69C23.8733 13.36 21.9533 11.53 18.9833 10.69L16.5233 10C14.3633 9.4 13.4033 8.2 13.4033 6.28C13.4033 4.45 14.7533 2.98 17.2733 2.98C19.5233 2.98 20.7833 4.3 21.2333 6.31H23.6033C23.1533 2.74 20.9033 0.699999 17.2733 0.699999C13.9133 0.699999 11.0633 2.68 11.0633 6.28C11.0633 8.83 12.3533 11.38 15.4733 12.25L18.1433 13C20.5133 13.66 21.5333 14.8 21.5333 16.69C21.5333 18.91 19.8833 20.02 17.5133 20.02C15.2633 20.02 13.4333 18.49 13.0733 15.79H10.7033C11.0033 19.81 13.7033 22.3 17.5133 22.3ZM41.7352 3.28V0.999999H29.7652V3.28H34.5952V19.72H29.7652V22H41.7352V19.72H36.9052V3.28H41.7352ZM54.0472 0.699999C50.0272 0.699999 47.2672 3.4 47.2672 7.81V15.19C47.2672 19.6 50.0272 22.3 54.0472 22.3C58.0672 22.3 60.8272 19.6 60.8272 15.19V10.84H54.0472V13.12H58.5172V15.19C58.5172 18.37 56.5372 20.02 54.0472 20.02C51.5572 20.02 49.5772 18.37 49.5772 15.19V7.81C49.5772 4.63 51.5572 2.98 54.0472 2.98C56.3872 2.98 58.2472 4.42 58.4872 7.21H60.7972C60.5572 3.16 57.8872 0.699999 54.0472 0.699999ZM79.0191 0.999999H76.7091V17.53L67.7691 0.999999H65.4591V22H67.7691V5.47L76.7091 22H79.0191V0.999999ZM101.963 15.19C101.963 19.6 104.723 22.3 108.743 22.3C112.763 22.3 115.523 19.6 115.523 15.19V0.999999H113.213V15.19C113.213 18.37 111.233 20.02 108.743 20.02C106.253 20.02 104.273 18.37 104.273 15.19V0.999999H101.963V15.19ZM134.495 7.42C134.495 3.7 132.575 0.999999 127.715 0.999999H120.935V22H123.245V13.84H127.715C132.575 13.84 134.495 11.14 134.495 7.42ZM132.125 7.42C132.125 9.7 130.955 11.56 127.715 11.56H123.245V3.28H127.715C130.955 3.28 132.125 5.14 132.125 7.42ZM136.877 24.58H141.017V2.74H136.877V0.579999H143.597V26.74H136.877V24.58Z" fill="#0000FF"/>
</svg>
